<svg version="1.1" viewBox="0.0 0.0 960.0 540.0" fill="none" stroke="none" stroke-linecap="square" stroke-miterlimit="10" xmlns:xlink="http://www.w3.org/1999/xlink" xmlns="http://www.w3.org/2000/svg"><clipPath id="p.0"><path d="m0 0l960.0 0l0 540.0l-960.0 0l0 -540.0z" clip-rule="nonzero"/></clipPath><g clip-path="url(#p.0)"><path fill="#ffffff" d="m0 0l960.0 0l0 540.0l-960.0 0z" fill-rule="evenodd"/><path fill="#000000" fill-opacity="0.0" d="m89.926506 113.456696l799.43304 0l0 234.96063l-799.43304 0z" fill-rule="evenodd"/><path fill="#1c4587" d="m123.01803 308.29733l35.187508 -91.625l13.0625 0l37.5 91.625l-13.8125 0l-10.6875 -27.75l-38.3125 0l-10.0625 27.75l-12.875008 0zm26.437508 -37.625l31.0625 0l-9.5625 -25.375q-4.375 -11.5625 -6.5 -19.0q-1.75 8.8125 -4.9375 17.5l-10.0625 26.875zm71.0625 37.625l0 -91.625l12.125 0l0 91.625l-12.125 0zm110.9375 -24.3125l11.0625 1.4375q-1.8125 11.4375 -9.28125 17.90625q-7.46875 6.46875 -18.34375 6.46875q-13.625 0 -21.90625 -8.90625q-8.28125 -8.90625 -8.28125 -25.53125q0 -10.75 3.5625 -18.8125q3.5625 -8.0625 10.84375 -12.09375q7.28125 -4.03125 15.84375 -4.03125q10.8125 0 17.6875 5.46875q6.875 5.46875 8.8125 15.53125l-10.9375 1.6875q-1.5625 -6.6875 -5.53125 -10.0625q-3.96875 -3.375 -9.59375 -3.375q-8.5 0 -13.8125 6.09375q-5.3125 6.09375 -5.3125 19.28125q0 13.375 5.125 19.4375q5.125 6.0625 13.375 6.0625q6.625 0 11.0625 -4.0625q4.4375 -4.0625 5.625 -12.5zm16.5 -8.875q0 -18.4375 10.25 -27.3125q8.5625 -7.375 20.875 -7.375q13.6875 0 22.375 8.96875q8.6875 8.96875 8.6875 24.78125q0 12.8125 -3.84375 20.15625q-3.84375 7.34375 -11.1875 11.40625q-7.34375 4.0625 -16.03125 4.0625q-13.9375 0 -22.53125 -8.9375q-8.59375 -8.9375 -8.59375 -25.75zm11.5625 0q0 12.75 5.5625 19.09375q5.5625 6.34375 14.0 6.34375q8.375 0 13.9375 -6.375q5.5625 -6.375 5.5625 -19.4375q0 -12.3125 -5.59375 -18.65625q-5.59375 -6.34375 -13.90625 -6.34375q-8.4375 0 -14.0 6.3125q-5.5625 6.3125 -5.5625 19.0625zm63.8125 33.1875l0 -66.375l10.125 0l0 9.4375q7.3125 -10.9375 21.125 -10.9375q6.0 0 11.03125 2.15625q5.03125 2.15625 7.53125 5.65625q2.5 3.5 3.5 8.3125q0.625 3.125 0.625 10.9375l0 40.8125l-11.25 0l0 -40.375q0 -6.875 -1.3125 -10.28125q-1.3125 -3.40625 -4.65625 -5.4375q-3.34375 -2.03125 -7.84375 -2.03125q-7.1875 0 -12.40625 4.5625q-5.21875 4.5625 -5.21875 17.3125l0 36.25l-11.25 0zm66.6875 -19.8125l11.125 -1.75q0.9375 6.6875 5.21875 10.25q4.28125 3.5625 11.9687195 3.5625q7.75 0 11.5 -3.15625q3.75 -3.15625 3.75 -7.40625q0 -3.8125 -3.3125 -6.0q-2.3125 -1.5 -11.5 -3.8125q-12.3749695 -3.125 -17.15622 -5.40625q-4.78125 -2.28125 -7.25 -6.3125q-2.46875 -4.03125 -2.46875 -8.90625q0 -4.4375 2.03125 -8.21875q2.03125 -3.78125 5.53125 -6.28125q2.625 -1.9375 7.15625 -3.28125q4.53125 -1.34375 9.7187195 -1.34375q7.8125 0 13.71875 2.25q5.90625 2.25 8.71875 6.09375q2.8125 3.84375 3.875 10.28125l-11.0 1.5q-0.75 -5.125 -4.34375 -8.0q-3.59375 -2.875 -10.15625 -2.875q-7.7499695 0 -11.0624695 2.5625q-3.3125 2.5625 -3.3125 6.0q0 2.1875 1.375 3.9375q1.375 1.8125 4.3125 3.0q1.6875 0.625 9.9374695 2.875q11.9375 3.1875 16.65625 5.21875q4.71875 2.03125 7.40625 5.90625q2.6875 3.875 2.6875 9.625q0 5.625 -3.28125 10.59375q-3.28125 4.96875 -9.46875 7.6875q-6.1875 2.71875 -14.0 2.71875q-12.9374695 0 -19.71872 -5.375q-6.78125 -5.375 -8.65625 -15.9375zm112.00003 19.8125l0 -9.75q-7.750061 11.25 -21.062561 11.25q-5.875 0 -10.96875 -2.25q-5.09375 -2.25 -7.5625 -5.65625q-2.46875 -3.40625 -3.46875 -8.34375q-0.6875 -3.3125 -0.6875 -10.5l0 -41.125l11.25 0l0 36.8125q0 8.8125 0.6875 11.875q1.0625 4.4375 4.5 6.96875q3.4375 2.53125 8.5 2.53125q5.0625 0 9.5 -2.59375q4.4375 -2.59375 6.28125 -7.0625q1.84375 -4.46875 1.84375 -12.96875l0 -35.5625l11.250061 0l0 66.375l-10.0625 0zm27.4375 0l0 -91.625l11.25 0l0 91.625l-11.25 0zm53.25 -10.0625l1.625 9.9375q-4.75 1.0 -8.5 1.0q-6.125 0 -9.5 -1.9375q-3.375 -1.9375 -4.75 -5.09375q-1.375 -3.15625 -1.375 -13.28125l0 -38.1875l-8.25 0l0 -8.75l8.25 0l0 -16.4375l11.1875 -6.75l0 23.1875l11.3125 0l0 8.75l-11.3125 0l0 38.8125q0 4.8125 0.59375 6.1875q0.59375 1.375 1.9375 2.1875q1.34375 0.8125 3.84375 0.8125q1.875 0 4.9375 -0.4375zm11.0625 -68.625l0 -12.9375l11.25 0l0 12.9375l-11.25 0zm0 78.6875l0 -66.375l11.25 0l0 66.375l-11.25 0zm28.375 0l0 -66.375l10.125 0l0 9.4375q7.3125 -10.9375 21.125 -10.9375q6.0 0 11.03125 2.15625q5.03125 2.15625 7.53125 5.65625q2.5 3.5 3.5 8.3125q0.625 3.125 0.625 10.9375l0 40.8125l-11.25 0l0 -40.375q0 -6.875 -1.3125 -10.28125q-1.3125 -3.40625 -4.65625 -5.4375q-3.34375 -2.03125 -7.84375 -2.03125q-7.1875 0 -12.40625 4.5625q-5.21875 4.5625 -5.21875 17.3125l0 36.25l-11.25 0zm69.125 5.5l10.9375 1.625q0.6875 5.0625 3.8125 7.375q4.1875 3.125 11.4375 3.125q7.8125 0 12.0625 -3.125q4.25 -3.125 5.75 -8.75q0.875 -3.4375 0.8125 -14.4375q-7.375 8.6875 -18.375 8.6875q-13.6875 0 -21.1875 -9.875q-7.5 -9.875 -7.5 -23.6875q0 -9.5 3.4375 -17.53125q3.4375 -8.03125 9.96875 -12.40625q6.53125 -4.375 15.34375 -4.375q11.75 0 19.375 9.5l0 -8.0l10.375 0l0 57.375q0 15.5 -3.15625 21.96875q-3.15625 6.46875 -10.0 10.21875q-6.84375 3.75 -16.84375 3.75q-11.875 0 -19.1875 -5.34375q-7.3125 -5.34375 -7.0625 -16.09375zm9.3125 -39.875q0 13.0625 5.1875 19.0625q5.1875 6.0 13.0 6.0q7.75 0 13.0 -5.96875q5.25 -5.96875 5.25 -18.71875q0 -12.1875 -5.40625 -18.375q-5.40625 -6.1875 -13.03125 -6.1875q-7.5 0 -12.75 6.09375q-5.25 6.09375 -5.25 18.09375z" fill-rule="nonzero"/></g></svg>